<svg width="25" height="25" viewBox="0 0 25 25" fill="none" xmlns="http://www.w3.org/2000/svg">
<mask id="mask0_22_7" style="mask-type:alpha" maskUnits="userSpaceOnUse" x="0" y="0" width="25" height="25">
<rect x="0.314026" y="0.798828" width="24" height="24" fill="#D9D9D9"/>
</mask>
<g mask="url(#mask0_22_7)">
<path d="M5.31403 21.7988C4.76403 21.7988 4.29319 21.603 3.90153 21.2113C3.50986 20.8197 3.31403 20.3488 3.31403 19.7988V5.79883C3.31403 5.24883 3.50986 4.77799 3.90153 4.38633C4.29319 3.99466 4.76403 3.79883 5.31403 3.79883H12.314V5.79883H5.31403V19.7988H12.314V21.7988H5.31403ZM16.314 17.7988L14.939 16.3488L17.489 13.7988H9.31403V11.7988H17.489L14.939 9.24883L16.314 7.79883L21.314 12.7988L16.314 17.7988Z" fill="white"/>
</g>
</svg>
