<svg xmlns="http://www.w3.org/2000/svg" width="49" height="49" fill="none" viewBox="0 0 49 49"><mask id="mask0_13_7" style="mask-type:alpha" width="49" height="49" x="0" y="0" maskUnits="userSpaceOnUse"><rect width="48" height="48" x=".817" y=".143" fill="#D9D9D9" rx="24"/></mask><g mask="url(#mask0_13_7)"><path fill="#fff" d="M24.8173 24.0927C22.6173 24.0927 20.8173 23.3927 19.4173 21.9927C18.0173 20.5927 17.3173 18.7927 17.3173 16.5927C17.3173 14.3927 18.0173 12.5927 19.4173 11.1927C20.8173 9.79265 22.6173 9.09265 24.8173 9.09265C27.0173 9.09265 28.8173 9.79265 30.2173 11.1927C31.6173 12.5927 32.3173 14.3927 32.3173 16.5927C32.3173 18.7927 31.6173 20.5927 30.2173 21.9927C28.8173 23.3927 27.0173 24.0927 24.8173 24.0927ZM13.5173 40.1427C10.9216 40.1427 8.81732 38.0384 8.81732 35.4427V35.4427C8.81732 34.176 9.13399 33.0927 9.76732 32.1927C10.4007 31.2927 11.2173 30.6093 12.2173 30.1427C14.4507 29.1427 16.5923 28.3927 18.6423 27.8927C20.6923 27.3927 22.7507 27.1427 24.8173 27.1427C26.884 27.1427 28.934 27.401 30.9673 27.9177C33.0007 28.4343 35.134 29.176 37.3673 30.1427C38.4007 30.6093 39.234 31.2927 39.8673 32.1927C40.5007 33.0927 40.8173 34.176 40.8173 35.4427V35.4427C40.8173 38.0384 38.7131 40.1427 36.1173 40.1427H13.5173Z"/></g></svg>